<svg width="32" height="32" viewBox="0 0 32 32" fill="none" xmlns="http://www.w3.org/2000/svg">
<g clip-path="url(#clip0_892_2377)">
<rect width="32" height="32" rx="16" fill="#1D906D"/>
<path fill-rule="evenodd" clip-rule="evenodd" d="M17.9998 22.3413C17.9998 23.2403 17.0838 24.0003 15.9998 24.0003C14.9158 24.0003 13.9998 23.2403 13.9998 22.3413V22.0003H17.9998V22.3413ZM24.5208 19.2073L22.7198 17.4043V12.9363C22.7198 9.45532 20.2178 6.49932 16.8988 6.05932C14.9778 5.80432 13.0378 6.39032 11.5828 7.66632C10.1188 8.94832 9.27985 10.7933 9.27985 12.7273L9.27885 17.4043L7.47885 19.2083C7.00985 19.6773 6.87085 20.3773 7.12485 20.9903C7.37985 21.6033 7.97285 22.0003 8.63685 22.0003H11.9998V22.3413C11.9998 24.3593 13.7938 26.0003 15.9998 26.0003C18.2058 26.0003 19.9998 24.3593 19.9998 22.3413V22.0003H23.3618C24.0258 22.0003 24.6188 21.6043 24.8728 20.9903C25.1278 20.3773 24.9888 19.6773 24.5208 19.2073Z" fill="white"/>
<mask id="mask0_892_2377" style="mask-type:luminance" maskUnits="userSpaceOnUse" x="6" y="6" width="19" height="21">
<path fill-rule="evenodd" clip-rule="evenodd" d="M17.9998 22.3413C17.9998 23.2403 17.0838 24.0003 15.9998 24.0003C14.9158 24.0003 13.9998 23.2403 13.9998 22.3413V22.0003H17.9998V22.3413ZM24.5208 19.2073L22.7198 17.4043V12.9363C22.7198 9.45532 20.2178 6.49932 16.8988 6.05932C14.9778 5.80432 13.0378 6.39032 11.5828 7.66632C10.1188 8.94832 9.27985 10.7933 9.27985 12.7273L9.27885 17.4043L7.47885 19.2083C7.00985 19.6773 6.87085 20.3773 7.12485 20.9903C7.37985 21.6033 7.97285 22.0003 8.63685 22.0003H11.9998V22.3413C11.9998 24.3593 13.7938 26.0003 15.9998 26.0003C18.2058 26.0003 19.9998 24.3593 19.9998 22.3413V22.0003H23.3618C24.0258 22.0003 24.6188 21.6043 24.8728 20.9903C25.1278 20.3773 24.9888 19.6773 24.5208 19.2073Z" fill="white"/>
</mask>
<g mask="url(#mask0_892_2377)">
<rect x="4" y="4" width="24" height="24" fill="white"/>
</g>
</g>
<defs>
<clipPath id="clip0_892_2377">
<rect width="32" height="32" fill="white"/>
</clipPath>
</defs>
</svg>
