<svg width="24" height="24" viewBox="0 0 24 24" fill="none" xmlns="http://www.w3.org/2000/svg">
<path d="M20.2929 21.7071C20.6834 22.0976 21.3166 22.0976 21.7071 21.7071C22.0976 21.3166 22.0976 20.6834 21.7071 20.2929L20.2929 21.7071ZM21.7071 20.2929L15.5902 14.176L14.176 15.5902L20.2929 21.7071L21.7071 20.2929ZM10.1299 16.2597C6.74444 16.2597 4 13.5153 4 10.1299H2C2 14.6199 5.63987 18.2597 10.1299 18.2597V16.2597ZM16.2597 10.1299C16.2597 13.5153 13.5153 16.2597 10.1299 16.2597V18.2597C14.6199 18.2597 18.2597 14.6199 18.2597 10.1299H16.2597ZM10.1299 4C13.5153 4 16.2597 6.74444 16.2597 10.1299H18.2597C18.2597 5.63987 14.6199 2 10.1299 2V4ZM10.1299 2C5.63987 2 2 5.63987 2 10.1299H4C4 6.74444 6.74444 4 10.1299 4V2Z" fill="white"/>
</svg>
